<?xml version="1.0" standalone="no"?>
<!DOCTYPE svg PUBLIC "-//W3C//DTD SVG 20010904//EN"
 "http://www.w3.org/TR/2001/REC-SVG-20010904/DTD/svg10.dtd">
<svg version="1.0" xmlns="http://www.w3.org/2000/svg"
 width="2000.000000pt" height="2000.000000pt" viewBox="0 0 2000.000000 2000.000000"
 preserveAspectRatio="xMidYMid meet">
<metadata>
Created by potrace 1.11, written by Peter Selinger 2001-2013
</metadata>
<g transform="translate(0.000000,2000.000000) scale(0.100000,-0.100000)"
fill="#000000" stroke="none">
<path d="M9007 15014 c-1 -1 -54 -5 -117 -8 -63 -4 -126 -8 -140 -10 -36 -6
-107 -15 -170 -22 -30 -3 -86 -13 -125 -21 -92 -19 -101 -21 -165 -34 -30 -6
-107 -24 -170 -41 -63 -16 -125 -32 -138 -34 -87 -17 -552 -183 -722 -259
-106 -47 -396 -191 -415 -205 -5 -4 -54 -33 -109 -65 -177 -102 -434 -276
-571 -387 -5 -5 -37 -30 -70 -56 -118 -93 -245 -209 -330 -301 l-29 -32 104
49 c85 40 211 89 253 98 4 1 9 3 12 4 3 1 8 3 13 5 4 1 14 5 22 8 67 27 481
160 540 172 205 44 376 72 484 80 49 4 101 8 115 10 14 2 64 6 111 10 47 3
101 8 120 10 19 2 71 6 115 10 44 3 96 8 115 10 249 25 473 25 630 0 14 -2 59
-7 100 -10 107 -9 124 -11 230 -34 52 -11 106 -22 120 -25 14 -2 70 -16 125
-31 55 -14 109 -28 120 -30 27 -6 278 -91 330 -112 22 -8 54 -21 70 -28 17 -7
68 -29 115 -48 100 -41 322 -154 433 -220 43 -26 82 -47 86 -47 4 0 16 -9 26
-20 10 -11 21 -20 26 -20 7 0 199 -128 209 -139 3 -3 39 -31 80 -63 41 -31 85
-65 97 -75 12 -10 32 -27 45 -37 131 -108 375 -348 472 -466 33 -41 68 -82 76
-91 8 -9 44 -56 80 -105 35 -49 68 -93 72 -99 21 -26 164 -256 204 -329 137
-247 254 -531 329 -801 10 -33 23 -80 30 -105 14 -47 40 -164 49 -215 3 -16
10 -50 15 -75 5 -25 12 -65 16 -90 3 -25 8 -52 10 -60 2 -8 6 -35 9 -60 3 -25
8 -56 11 -70 3 -14 7 -47 9 -75 3 -27 9 -86 13 -130 17 -174 8 -606 -16 -750
-6 -33 -13 -82 -16 -110 -4 -27 -8 -58 -11 -67 -3 -9 -7 -25 -9 -35 -2 -10
-11 -54 -20 -98 -16 -81 -101 -367 -116 -395 -5 -8 -22 -50 -39 -92 -49 -127
-212 -452 -253 -503 -4 -5 -22 -32 -40 -60 -37 -59 -27 -44 -128 -175 -100
-130 -281 -309 -411 -406 -54 -41 -100 -74 -102 -74 -2 0 -34 -18 -70 -40
-168 -102 -501 -231 -661 -256 -22 -3 -43 -8 -46 -9 -3 -2 -25 -7 -50 -10 -24
-3 -60 -8 -79 -11 -57 -9 -394 -12 -447 -4 -26 4 -70 11 -98 14 -90 11 -249
47 -325 73 -25 8 -52 16 -60 18 -8 2 -44 15 -80 28 -298 111 -599 282 -804
460 -75 64 -234 224 -261 262 -11 16 -24 33 -30 39 -121 135 -344 561 -431
826 -31 95 -80 298 -89 369 -4 30 -9 63 -11 75 -28 139 -19 515 17 746 25 160
114 486 140 515 5 5 9 15 9 22 0 24 126 290 156 330 13 17 24 34 24 38 0 3 5
11 11 18 5 7 39 57 75 112 36 55 72 109 81 120 17 22 124 147 133 155 51 52
72 80 55 73 -48 -19 -285 -146 -285 -153 0 -4 -12 -12 -27 -19 -67 -31 -407
-338 -483 -437 -69 -89 -85 -110 -90 -114 -11 -9 -116 -173 -171 -265 -41 -71
-137 -259 -144 -285 -3 -10 -18 -46 -31 -77 -8 -17 -14 -34 -14 -38 0 -4 -6
-21 -14 -38 -37 -83 -125 -389 -142 -492 -3 -21 -8 -47 -10 -59 -7 -28 -11
-52 -18 -111 -4 -27 -9 -63 -11 -80 -19 -139 -24 -438 -11 -563 9 -81 27 -223
31 -247 11 -64 58 -268 80 -344 14 -48 28 -97 30 -107 38 -160 212 -548 342
-762 68 -114 209 -314 258 -368 5 -6 34 -40 64 -75 75 -88 251 -263 336 -335
39 -32 76 -64 84 -72 27 -27 247 -189 336 -248 381 -254 814 -433 1260 -520
11 -2 31 -6 45 -9 53 -12 299 -43 395 -50 108 -7 375 -8 440 0 22 2 72 7 110
10 39 3 81 7 95 10 14 2 42 6 63 9 58 9 107 17 131 22 11 2 37 7 56 10 250 41
545 127 735 213 37 17 74 31 81 31 8 0 14 5 14 10 0 6 6 10 13 10 15 0 227
107 312 158 33 19 131 83 219 141 87 58 166 111 175 116 9 6 25 18 36 27 11 9
67 54 125 100 185 147 368 337 596 621 8 9 14 22 14 27 0 6 5 10 10 10 6 0 10
6 10 14 0 8 4 16 9 18 10 4 240 348 272 408 13 25 26 47 29 50 15 15 160 303
160 318 0 5 7 15 15 22 8 7 15 19 15 27 0 8 12 40 26 71 51 114 57 129 91 222
73 203 155 472 168 550 3 19 13 62 21 95 21 80 21 81 48 235 25 147 31 191 41
300 4 41 9 82 10 90 23 125 24 869 1 987 -3 12 -8 53 -11 90 -7 77 -7 70 -35
253 -51 322 -154 701 -271 998 -17 43 -35 81 -40 86 -5 6 -9 16 -9 23 0 23
-158 363 -221 473 -100 178 -128 225 -187 320 -238 378 -595 797 -887 1040
-49 41 -97 82 -105 90 -8 8 -42 35 -75 60 -33 25 -62 48 -65 51 -7 8 -203 146
-275 194 -33 22 -62 42 -65 45 -3 3 -18 12 -34 20 -56 29 -66 35 -66 42 0 5
-5 8 -10 8 -6 0 -29 12 -53 27 -53 35 -130 77 -312 172 -45 23 -173 81 -180
81 -2 0 -32 13 -67 29 -82 38 -302 119 -448 164 -272 84 -550 140 -865 173
-33 3 -91 8 -130 11 -75 4 -504 11 -508 7z"/>
<path d="M9939 11246 c-2 -2 -47 -7 -99 -10 -53 -4 -105 -8 -115 -10 -11 -2
-45 -7 -75 -10 -94 -11 -122 -15 -139 -20 -9 -3 -36 -8 -61 -11 -25 -4 -65
-11 -90 -17 -25 -5 -54 -11 -65 -14 -11 -2 -61 -13 -111 -25 l-91 -22 85 -136
c95 -151 245 -375 274 -407 10 -11 18 -23 18 -27 0 -6 75 -109 125 -172 13
-16 32 -41 42 -53 63 -81 108 -138 114 -142 3 -3 30 -34 60 -70 56 -68 295
-311 365 -370 183 -157 424 -291 569 -316 16 -3 46 -9 65 -13 57 -13 220 -6
286 12 125 34 276 118 358 199 l41 40 -35 -7 c-92 -17 -134 -20 -255 -18 -142
1 -252 26 -358 79 -177 89 -334 260 -437 477 -47 98 -104 254 -115 314 -2 15
-9 44 -15 63 -12 43 -9 47 101 104 158 82 307 116 481 110 273 -8 474 -122
688 -390 14 -18 53 -77 109 -164 l22 -35 -5 35 c-3 19 -10 67 -16 106 -9 63
-33 147 -72 244 -14 36 -67 131 -78 140 -3 3 -13 15 -21 27 -58 84 -241 253
-275 253 -8 0 -14 5 -14 10 0 6 -4 10 -9 10 -4 0 -39 17 -77 38 -108 59 -298
124 -429 147 -16 2 -41 7 -55 10 -29 7 -65 12 -135 21 -27 3 -61 8 -75 10 -32
6 -475 15 -481 10z"/>
</g>
</svg>
